<svg width="264" height="84" viewBox="0 0 264 84" fill="none" xmlns="http://www.w3.org/2000/svg">
<path d="M73.4589 41.75C73.4589 44.28 74.0273 46.4983 75.1639 48.405C76.3373 50.275 77.8589 51.7233 79.7289 52.75C81.5989 53.74 83.6339 54.235 85.8339 54.235C87.6673 54.235 89.2989 53.9967 90.7289 53.52C92.1589 53.0433 93.4423 52.4017 94.579 51.595C95.7523 50.7883 96.7606 49.9083 97.604 48.955V57.81C96.0273 59.0567 94.3039 60.0283 92.4339 60.725C90.6006 61.4217 88.2723 61.77 85.4489 61.77C82.5156 61.77 79.784 61.2933 77.254 60.34C74.7606 59.3867 72.5789 58.0117 70.7089 56.215C68.8756 54.4183 67.4456 52.31 66.4189 49.89C65.4289 47.4333 64.9339 44.72 64.9339 41.75C64.9339 38.78 65.4289 36.085 66.4189 33.665C67.4456 31.2083 68.8756 29.0817 70.7089 27.285C72.5789 25.4883 74.7606 24.1133 77.254 23.16C79.784 22.2067 82.5156 21.73 85.4489 21.73C88.2723 21.73 90.6006 22.0783 92.4339 22.775C94.3039 23.4717 96.0273 24.4433 97.604 25.69V34.545C96.7606 33.5917 95.7523 32.7117 94.579 31.905C93.4423 31.0983 92.1589 30.4567 90.7289 29.98C89.2989 29.5033 87.6673 29.265 85.8339 29.265C83.6339 29.265 81.5989 29.7783 79.7289 30.805C77.8589 31.795 76.3373 33.225 75.1639 35.095C74.0273 36.965 73.4589 39.1833 73.4589 41.75ZM103.165 48.35C103.165 45.71 103.77 43.4 104.98 41.42C106.227 39.44 107.895 37.9 109.985 36.8C112.112 35.7 114.513 35.15 117.19 35.15C119.867 35.15 122.25 35.7 124.34 36.8C126.467 37.9 128.135 39.44 129.345 41.42C130.592 43.4 131.215 45.71 131.215 48.35C131.215 50.9533 130.592 53.2633 129.345 55.28C128.135 57.26 126.467 58.8 124.34 59.9C122.25 61 119.867 61.55 117.19 61.55C114.513 61.55 112.112 61 109.985 59.9C107.895 58.8 106.227 57.26 104.98 55.28C103.77 53.2633 103.165 50.9533 103.165 48.35ZM110.425 48.35C110.425 49.78 110.718 51.045 111.305 52.145C111.928 53.2083 112.753 54.0517 113.78 54.675C114.807 55.2617 115.943 55.555 117.19 55.555C118.437 55.555 119.573 55.2617 120.6 54.675C121.627 54.0517 122.433 53.2083 123.02 52.145C123.643 51.045 123.955 49.78 123.955 48.35C123.955 46.92 123.643 45.655 123.02 44.555C122.433 43.455 121.627 42.6117 120.6 42.025C119.573 41.4383 118.437 41.145 117.19 41.145C115.943 41.145 114.807 41.4383 113.78 42.025C112.753 42.6117 111.928 43.455 111.305 44.555C110.718 45.655 110.425 46.92 110.425 48.35ZM134.514 35.7H150.354V41.695H134.514V35.7ZM149.584 25.25C149.218 24.7 148.796 24.3333 148.319 24.15C147.879 23.93 147.439 23.82 146.999 23.82C146.449 23.82 145.973 23.9667 145.569 24.26C145.203 24.5167 144.909 24.9567 144.689 25.58C144.469 26.2033 144.359 26.9917 144.359 27.945V61H137.484V26.35C137.484 24.4067 137.814 22.775 138.474 21.455C139.134 20.135 140.124 19.1267 141.444 18.43C142.764 17.6967 144.378 17.33 146.284 17.33C147.421 17.33 148.393 17.4767 149.199 17.77C150.006 18.0267 150.684 18.3567 151.234 18.76C151.821 19.1633 152.279 19.5483 152.609 19.915L149.584 25.25ZM152.554 35.7H168.394V41.695H152.554V35.7ZM167.624 25.25C167.257 24.7 166.835 24.3333 166.359 24.15C165.919 23.93 165.479 23.82 165.039 23.82C164.489 23.82 164.012 23.9667 163.609 24.26C163.242 24.5167 162.949 24.9567 162.729 25.58C162.509 26.2033 162.399 26.9917 162.399 27.945V61H155.524V26.35C155.524 24.4067 155.854 22.775 156.514 21.455C157.174 20.135 158.164 19.1267 159.484 18.43C160.804 17.6967 162.417 17.33 164.324 17.33C165.46 17.33 166.432 17.4767 167.239 17.77C168.045 18.0267 168.724 18.3567 169.274 18.76C169.86 19.1633 170.319 19.5483 170.649 19.915L167.624 25.25ZM184.673 61.55C181.923 61.55 179.522 61 177.468 59.9C175.415 58.8 173.82 57.2783 172.683 55.335C171.583 53.355 171.033 51.0267 171.033 48.35C171.033 45.6367 171.583 43.3083 172.683 41.365C173.82 39.385 175.415 37.8633 177.468 36.8C179.522 35.7 181.942 35.15 184.728 35.15C187.515 35.15 189.88 35.6633 191.823 36.69C193.803 37.68 195.307 39.1467 196.333 41.09C197.36 42.9967 197.873 45.3067 197.873 48.02C197.873 48.35 197.855 48.6983 197.818 49.065C197.818 49.4317 197.8 49.725 197.763 49.945H175.103V45.545H191.548L189.623 48.075C189.77 47.855 189.898 47.5617 190.008 47.195C190.155 46.7917 190.228 46.4617 190.228 46.205C190.228 44.9583 189.99 43.895 189.513 43.015C189.073 42.135 188.432 41.4383 187.588 40.925C186.745 40.4117 185.755 40.155 184.618 40.155C183.225 40.155 182.052 40.4667 181.098 41.09C180.182 41.6767 179.467 42.575 178.953 43.785C178.477 44.9583 178.22 46.425 178.183 48.185C178.183 49.8717 178.422 51.3017 178.898 52.475C179.412 53.6483 180.163 54.5467 181.153 55.17C182.143 55.7933 183.335 56.105 184.728 56.105C186.305 56.105 187.643 55.8117 188.743 55.225C189.88 54.6017 190.815 53.685 191.548 52.475L197.763 54.4C196.443 56.7833 194.683 58.58 192.483 59.79C190.32 60.9633 187.717 61.55 184.673 61.55Z" fill="#1E293B"/>
</svg>
